<?xml version="1.0" encoding="UTF-8"?>
<svg id="Capa_1" data-name="Capa 1" xmlns="http://www.w3.org/2000/svg" viewBox="0 0 1155.22 130.25">
  <defs>
    <style>
      .cls-1 {
        fill: #fff;
      }
    </style>
  </defs>
  <path class="cls-1" d="M18.44,16.19v45.4h64.73v16H18.44v52.66H0V0h91.1v16.19H18.44Z"/>
  <path class="cls-1" d="M194.4,114.06v16.19h-84.32V0h84.2v16.19h-67.16v40.01h59.83v15.82h-59.83v42.05h67.27Z"/>
  <path class="cls-1" d="M1155.22,114.06v16.19h-84.32V0h84.2v16.19h-67.16v40.01h59.83v15.82h-59.83v42.05h67.27Z"/>
  <path class="cls-1" d="M302.25,130.25l-27.4-40.01c-2.54.19-5.26.37-7.98.37h-31.39v39.63h-18.14V0h49.54c33.02,0,52.98,17.12,52.98,45.4,0,20.1-10.16,34.61-27.94,41.12l30.12,43.73h-19.78ZM301.71,45.4c0-18.61-12.16-29.21-35.38-29.21h-30.85v58.61h30.85c23.23,0,35.38-10.79,35.38-29.4Z"/>
  <path class="cls-1" d="M430.58,130.25l-27.4-40.01c-2.54.19-5.26.37-7.98.37h-31.39v39.63h-18.14V0h49.54c33.02,0,52.98,17.12,52.98,45.4,0,20.1-10.16,34.61-27.94,41.12l30.12,43.73h-19.78ZM430.04,45.4c0-18.61-12.16-29.21-35.38-29.21h-30.85v58.61h30.85c23.23,0,35.38-10.79,35.38-29.4Z"/>
  <path class="cls-1" d="M463.14,65.13C463.14,27.88,491.65.08,530.45.08s66.94,27.62,66.94,65.04-28.51,65.04-66.94,65.04-67.3-27.8-67.3-65.04ZM579.35,65.13c0-28.16-20.93-48.87-48.9-48.87s-49.26,20.71-49.26,48.87,20.93,48.87,49.26,48.87,48.9-20.71,48.9-48.87Z"/>
  <path class="cls-1" d="M726.98,0l-55.72,130.25h-17.97L597.39,0h19.6l45.74,106.99L708.83,0h18.15Z"/>
  <path class="cls-1" d="M814.88,97.69h-67.26l-13.92,32.56h-18.62L772.39,0h17.9l57.5,130.25h-18.98l-13.92-32.56ZM808.55,82.8l-27.3-63.82-27.3,63.82h54.6Z"/>
  <path class="cls-1" d="M861.97,0h17.76v114.06h67.33v16.19h-85.09V0Z"/>
  <path class="cls-1" d="M966.31,0h17.76v114.06h67.33v16.19h-85.09V0Z"/>
</svg>
